HIERARCHY
ROOT Hips
{
	OFFSET 0.000000 0.000000 0.000000 
	CHANNELS 6 Xposition Yposition Zposition Zrotation Xrotation Yrotation
	JOINT Spine
	{
		OFFSET -0.000000 8.061080 0.000000 
		CHANNELS 3 Zrotation Xrotation Yrotation
		JOINT Spine1
		{
			OFFSET -0.000000 20.532700 0.000000 
			CHANNELS 3 Zrotation Xrotation Yrotation
			JOINT Neck
			{
				OFFSET -0.000000 22.498800 0.000000 
				CHANNELS 3 Zrotation Xrotation Yrotation
				JOINT Head
				{
					OFFSET -0.000000 15.237400 1.966120 
					CHANNELS 3 Zrotation Xrotation Yrotation
					End Site
					{
						OFFSET -0.000000 19.661222 0.000000 
					}
				}
			}
			JOINT LeftShoulder
			{
				OFFSET 3.894670 16.042299 -0.398189 
				CHANNELS 3 Zrotation Xrotation Yrotation
				JOINT LeftArm
				{
					OFFSET 19.709600 0.000000 0.000000 
					CHANNELS 3 Zrotation Xrotation Yrotation
					JOINT LeftForeArm
					{
						OFFSET 25.566900 0.000000 0.000000 
						CHANNELS 3 Zrotation Xrotation Yrotation
						JOINT LeftHand
						{
							OFFSET 25.401899 0.000000 0.000000 
							CHANNELS 3 Zrotation Xrotation Yrotation
							End Site
							{
								OFFSET 14.745918 0.000000 0.000000 
							}
						}
					}
				}
			}
			JOINT RightShoulder
			{
				OFFSET -3.930780 16.042299 -0.398189 
				CHANNELS 3 Zrotation Xrotation Yrotation
				JOINT RightArm
				{
					OFFSET -19.709600 0.000000 0.000000 
					CHANNELS 3 Zrotation Xrotation Yrotation
					JOINT RightForeArm
					{
						OFFSET -25.566900 0.000000 0.000000 
						CHANNELS 3 Zrotation Xrotation Yrotation
						JOINT RightHand
						{
							OFFSET -25.401899 0.000000 0.000000 
							CHANNELS 3 Zrotation Xrotation Yrotation
							End Site
							{
								OFFSET -14.745918 0.000000 0.000000 
							}
						}
					}
				}
			}
		}
	}
	JOINT LeftUpLeg
	{
		OFFSET 9.830590 0.000000 0.000000 
		CHANNELS 3 Zrotation Xrotation Yrotation
		JOINT LeftLeg
		{
			OFFSET -0.000000 -46.474800 0.000000 
			CHANNELS 3 Zrotation Xrotation Yrotation
			JOINT LeftFoot
			{
				OFFSET -0.000000 -30.290499 0.000000 
				CHANNELS 3 Zrotation Xrotation Yrotation
				JOINT LeftToeBase
				{
					OFFSET -0.000000 -6.389880 14.745900 
					CHANNELS 3 Zrotation Xrotation Yrotation
					End Site
					{
						OFFSET -0.000000 0.000000 3.932244 
					}
				}
			}
		}
	}
	JOINT RightUpLeg
	{
		OFFSET -9.830590 0.000000 0.000000 
		CHANNELS 3 Zrotation Xrotation Yrotation
		JOINT RightLeg
		{
			OFFSET -0.000000 -46.474800 0.000000 
			CHANNELS 3 Zrotation Xrotation Yrotation
			JOINT RightFoot
			{
				OFFSET -0.000000 -30.290499 0.000000 
				CHANNELS 3 Zrotation Xrotation Yrotation
				JOINT RightToeBase
				{
					OFFSET -0.000000 -6.389880 14.745900 
					CHANNELS 3 Zrotation Xrotation Yrotation
					End Site
					{
						OFFSET -0.000000 0.000000 3.932244 
					}
				}
			}
		}
	}
}
MOTION
Frames: 14
Frame Time: 0.010000
15.984304 83.794090 15.088230 -9.562497 1.066956 78.076347 -2.230903 -7.803441 -6.746557 3.639704 2.840935 -2.291426 3.168894 5.513322 5.024347 -3.261034 15.588488 6.615235 5.533878 3.352917 -9.777795 -61.088688 35.260010 -32.680943 -8.696589 -8.248913 -5.659976 3.150744 -8.613226 2.264485 -9.540498 11.212174 -10.345389 52.952423 54.747871 42.263767 4.308192 -11.368479 4.661569 7.208458 -11.308915 3.743400 4.700789 -7.728483 -9.303947 3.398247 7.355440 1.080081 -7.456540 -3.093769 9.534366 0.000000 0.000000 0.000000 -10.659159 -19.281298 7.134319 9.016928 10.911180 -24.956217 0.000000 0.000000 0.000000 0.000000 0.000000 0.000000 
16.223871 83.797195 15.462444 -9.622353 1.001094 78.477867 -1.988131 -7.842461 -6.623323 3.615129 2.843149 -2.255246 2.809671 5.562349 4.976560 -2.504966 15.449724 6.301661 5.560267 3.505382 -9.620712 -61.416111 35.182877 -32.517685 -8.681966 -8.195378 -5.640600 3.218413 -8.556458 2.256672 -9.589616 11.160245 -10.326552 52.958302 54.812393 42.249504 4.325874 -11.356215 4.656075 7.070951 -11.303223 3.716317 4.900458 -7.989979 -9.238706 3.398247 7.355440 1.080081 -7.456540 -3.093769 9.534366 0.000000 0.000000 0.000000 -10.526540 -19.121883 7.286019 9.068578 10.706891 -24.980097 0.000000 0.000000 0.000000 0.000000 0.000000 0.000000 
16.465338 83.801506 15.836922 -9.680952 0.933204 78.879982 -1.744341 -7.893858 -6.492045 3.591977 2.841526 -2.216418 2.503291 5.638915 4.966396 -1.849532 15.262582 6.063941 5.581412 3.683237 -9.476691 -61.745182 35.091095 -32.342953 -8.667405 -8.144488 -5.627986 3.285937 -8.502924 2.246540 -9.651305 11.127748 -10.282148 52.986084 54.857910 42.224133 4.342233 -11.342972 4.647975 6.929698 -11.296527 3.687864 5.100184 -8.266513 -9.169583 3.398247 7.355440 1.080081 -7.456540 -3.093769 9.534366 0.000000 0.000000 0.000000 -10.392532 -18.952156 7.435899 9.127578 10.497804 -25.005741 0.000000 0.000000 0.000000 0.000000 0.000000 0.000000 
16.708586 83.807076 16.211082 -9.737509 0.863807 79.283379 -1.498708 -7.943851 -6.351947 3.571758 2.848238 -2.175127 2.162353 5.663437 4.982716 -1.079944 15.155903 5.819366 5.596428 3.857888 -9.309740 -62.071434 35.013142 -32.172283 -8.652158 -8.094045 -5.620501 3.354293 -8.450283 2.233815 -9.718879 11.079571 -10.252291 52.999287 54.918846 42.217102 4.358839 -11.331396 4.638811 6.786386 -11.291485 3.659086 5.298845 -8.557673 -9.097894 3.398247 7.355440 1.080081 -7.456540 -3.093769 9.534366 0.000000 0.000000 0.000000 -10.257922 -18.771921 7.582029 9.192719 10.284537 -25.032732 0.000000 0.000000 0.000000 0.000000 0.000000 0.000000 
16.953485 83.813972 16.584324 -9.791303 0.793464 79.688683 -1.256660 -7.995779 -6.203381 3.550916 2.859722 -2.131129 1.944695 5.478763 4.962229 -0.529002 15.447599 5.614768 5.618160 4.038755 -9.134085 -62.408684 34.934124 -31.999641 -8.634994 -8.041216 -5.617230 3.425018 -8.395462 2.219513 -9.780457 11.025920 -10.223940 52.990692 54.987579 42.224026 4.376312 -11.325726 4.632211 6.642937 -11.292365 3.631034 5.494920 -8.863120 -9.024421 3.398247 7.355440 1.080081 -7.456540 -3.093769 9.534366 0.000000 0.000000 0.000000 -10.123446 -18.581018 7.722217 9.262618 10.067711 -25.060499 0.000000 0.000000 0.000000 0.000000 0.000000 0.000000 
17.199930 83.822227 16.956051 -9.841646 0.722743 80.096451 -1.020159 -8.054145 -6.047959 3.529575 2.868523 -2.084605 1.559856 5.617087 4.864796 0.268737 15.200331 5.239718 5.645330 4.239626 -8.965270 -62.755783 34.842564 -31.819277 -8.616623 -7.987378 -5.619394 3.497058 -8.340041 2.203380 -9.840492 10.984224 -10.177740 52.979477 55.046974 42.230820 4.393280 -11.324477 4.627003 6.499599 -11.297596 3.603616 5.687178 -9.182350 -8.950315 3.398247 7.355440 1.080081 -7.456540 -3.093769 9.534366 0.000000 0.000000 0.000000 -9.989840 -18.379433 7.854584 9.336112 9.848073 -25.088764 0.000000 0.000000 0.000000 0.000000 0.000000 0.000000 
17.447834 83.831894 17.325657 -9.887900 0.652261 80.507179 -0.783028 -8.106853 -5.884333 3.515212 2.891331 -2.036215 1.321241 5.531168 4.857659 0.908022 15.313634 5.022214 5.654526 4.427223 -8.762341 -63.083466 34.778301 -31.649071 -8.601404 -7.935820 -5.630335 3.569335 -8.287799 2.184856 -9.915385 10.917674 -10.159699 52.959583 55.126171 42.260822 4.409345 -11.321627 4.617946 6.355583 -11.301004 3.575861 5.874245 -9.514803 -8.876635 3.398247 7.355440 1.080081 -7.456540 -3.093769 9.534366 0.000000 0.000000 0.000000 -9.857855 -18.167097 7.977245 9.411932 9.626412 -25.116766 0.000000 0.000000 0.000000 0.000000 0.000000 0.000000 
17.697124 83.843018 17.692528 -9.929514 0.582608 80.921341 -0.554755 -8.166351 -5.714165 3.499262 2.910330 -1.985296 1.059009 5.435594 4.815526 1.556808 15.477694 4.760164 5.672005 4.637584 -8.572014 -63.421982 34.696899 -31.469881 -8.586187 -7.882347 -5.647178 3.643358 -8.234099 2.165034 -9.985463 10.867131 -10.120528 52.937214 55.191864 42.288567 4.424594 -11.324046 4.611201 6.213504 -11.309538 3.549340 6.054764 -9.859878 -8.804463 3.398247 7.355440 1.080081 -7.456540 -3.093769 9.534366 0.000000 0.000000 0.000000 -9.728158 -17.944004 8.088273 9.488934 9.403341 -25.144356 0.000000 0.000000 0.000000 0.000000 0.000000 0.000000 
17.947756 83.855614 18.056076 -9.965985 0.514379 81.339195 -0.333393 -8.223063 -5.537441 3.485051 2.935702 -1.932332 0.763937 5.438232 4.761832 2.270493 15.455892 4.466139 5.689151 4.848493 -8.365704 -63.759434 34.622917 -31.293137 -8.572684 -7.827142 -5.670483 3.719177 -8.179266 2.143949 -10.054014 10.806668 -10.090369 52.895763 55.267056 42.333645 4.439509 -11.330795 4.605720 6.074106 -11.322216 3.524158 6.227469 -10.216844 -8.734748 3.398247 7.355440 1.080081 -7.456540 -3.093769 9.534366 0.000000 0.000000 0.000000 -9.601330 -17.710299 8.186175 9.565928 9.179793 -25.170952 0.000000 0.000000 0.000000 0.000000 0.000000 0.000000 
18.199697 83.869690 18.415688 -9.996941 0.448139 81.761024 -0.120219 -8.282940 -5.354681 3.471668 2.960837 -1.877247 0.476803 5.403496 4.704967 2.973828 15.517372 4.170878 5.705605 5.074083 -8.162274 -64.095337 34.542286 -31.112251 -8.562258 -7.771272 -5.701476 3.795968 -8.124531 2.121943 -10.124917 10.754535 -10.050009 52.855499 55.333588 42.380890 4.452615 -11.340281 4.600259 5.937614 -11.337366 3.500316 6.391059 -10.584980 -8.668365 3.398247 7.355440 1.080081 -7.456540 -3.093769 9.534366 0.000000 0.000000 0.000000 -9.477969 -17.466074 8.269242 9.641941 8.956323 -25.196297 0.000000 0.000000 0.000000 0.000000 0.000000 0.000000 
18.452951 83.885246 18.770779 -10.022075 0.384449 82.186897 0.082743 -8.341310 -5.166125 3.457737 2.989113 -1.820089 0.191340 5.386998 4.602771 3.662174 15.553677 3.833170 5.727178 5.306086 -7.951785 -64.434547 34.460693 -30.930798 -8.554077 -7.712409 -5.738036 3.874700 -8.067338 2.099458 -10.188899 10.699685 -10.010791 52.795147 55.403431 42.441689 4.465216 -11.355664 4.597878 5.805782 -11.358195 3.478545 6.544321 -10.963428 -8.606199 3.398247 7.355440 1.080081 -7.456540 -3.093769 9.534366 0.000000 0.000000 0.000000 -9.358549 -17.211567 8.336204 9.716013 8.733635 -25.220217 0.000000 0.000000 0.000000 0.000000 0.000000 0.000000 
18.707546 83.902252 19.120781 -10.041132 0.323777 82.616890 0.277380 -8.397611 -4.972142 3.445575 3.021536 -1.761247 -0.110739 5.399666 4.565977 4.405594 15.499787 3.548557 5.744113 5.542120 -7.731181 -64.765549 34.383770 -30.750355 -8.550875 -7.653960 -5.781965 3.956934 -8.011317 2.076966 -10.255897 10.641293 -9.975593 52.727222 55.474857 42.514091 4.476140 -11.373376 4.595654 5.678499 -11.381023 3.458494 6.686220 -11.351271 -8.549017 3.398247 7.355440 1.080081 -7.456540 -3.093769 9.534366 0.000000 0.000000 0.000000 -9.243542 -16.946976 8.386103 9.787491 8.512380 -25.242434 0.000000 0.000000 0.000000 0.000000 0.000000 0.000000 
18.963528 83.920654 19.465141 -10.054014 0.266560 83.050812 0.460457 -8.456291 -4.773503 3.431611 3.050661 -1.700339 -0.498869 5.469235 4.551083 5.296731 15.333112 3.237880 5.766342 5.796043 -7.518569 -65.098915 34.293861 -30.564066 -8.551494 -7.590100 -5.831596 4.033374 -7.950642 2.053940 -10.318533 10.595258 -9.925723 52.654133 55.535255 42.588459 4.485108 -11.395952 4.595864 5.557059 -11.408400 3.440837 6.815707 -11.747531 -8.497273 3.398247 7.355440 1.080081 -7.456540 -3.093769 9.534366 0.000000 0.000000 0.000000 -9.133235 -16.672642 8.417948 9.855520 8.293151 -25.262648 0.000000 0.000000 0.000000 0.000000 0.000000 0.000000 
19.220970 83.940399 19.803314 -10.060685 0.213169 83.488533 0.632443 -8.509155 -4.569859 3.416192 3.086173 -1.637694 -0.846326 5.500182 4.474990 6.114112 15.260011 2.887671 5.793264 6.048036 -7.289987 -65.431854 34.210209 -30.380787 -8.556346 -7.523782 -5.885025 4.114465 -7.887939 2.031883 -10.371625 10.537295 -9.888101 52.549339 55.607727 42.685410 4.493571 -11.425191 4.600341 5.442860 -11.442204 3.426152 6.931938 -12.151193 -8.451630 3.398247 7.355440 1.080081 -7.456540 -3.093769 9.534366 0.000000 0.000000 0.000000 -9.027933 -16.388901 8.431114 9.919586 8.076502 -25.280523 0.000000 0.000000 0.000000 0.000000 0.000000 0.000000 
